<svg xmlns="http://www.w3.org/2000/svg" id="Capa_1" data-name="Capa 1" viewBox="0 0 610.9 216.51"><defs><style>.cls-1{fill:#2e0200;}.cls-2{fill:#fff;}.cls-3{fill:#fbba00;}</style></defs><title>logotipo-territorio-huanca</title><circle class="cls-1" cx="108.27" cy="108.25" r="102.82"></circle><path class="cls-2" d="M464.2,125c0-6.44.09-11.55,0-16.66-.09-3.34,1-4.93,4.66-4.69,3.79.24,7.64.12,11.45,0,2.68-.06,3.79,1,3.79,3.73q-.09,27.78,0,55.59c0,2.79-1,4.21-3.94,4.15-4-.06-7.9-.13-11.87,0-3,.09-4.42-1.48-4-4.09,1.5-8.15-2.5-13.89-7.79-19.27-2.25-2.29-4.18-4.9-6.85-8.09-.15,2-.3,3.12-.3,4.27,0,7.42-.15,14.88,0,22.3.09,3.7-1.38,5.06-5,4.85s-7.34-.07-11,0c-2.64,0-3.81-1.15-3.81-3.82q.09-28,0-56c0-2.44.9-3.73,3.48-3.58a3.93,3.93,0,0,0,.84,0c7.94-1.23,14.1,1.14,18.79,8C455.66,116.21,459.72,119.93,464.2,125Z"></path><path class="cls-2" d="M266.86,144.65H252.34c0,6.07-.12,11.93.06,17.77.09,3.39-1.08,4.93-4.63,4.75-3.82-.19-7.64-.1-11.46,0-2.76.06-4.26-1-4.26-3.88q0-28,0-56c0-2.44,1-3.61,3.57-3.58,4.24.06,8.48.12,12.72,0,2.92-.09,4.09,1,4,3.94-.12,5.86,0,11.72,0,17.86h14.52c0-5.75.15-11.31-.06-16.87-.12-3.55,1-5.2,4.81-5s7.64.15,11.45,0c2.8-.09,4.15.87,4.12,3.85q-.09,27.78,0,55.56c0,2.82-1.14,4.12-4.06,4.06-4.08-.1-8.2-.07-12.29,0-2.89,0-4-1.36-4-4.15C266.92,157,266.86,151,266.86,144.65Z"></path><path class="cls-2" d="M585,151.86H569.6c0,3.82-.06,7.55,0,11.28.06,2.61-1,4-3.66,4h-12.3c-2.47,0-3.4-1.18-3.55-3.64-1.41-23.06,1-35.87,11.07-56.58a6.63,6.63,0,0,1,4.78-3c7.75-.33,15.57-.09,23.33-.18,2.88,0,4.29,1.23,5.26,3.85,2.55,7,5.71,13.77,7.9,20.86a72,72,0,0,1,2.77,16.06c.45,6.13.06,12.35.12,18.55,0,2.76-1.11,4.21-4,4.18-4.09-.06-8.21-.06-12.29,0-2.92,0-4.06-1.45-4-4.18C585,159.35,585,155.71,585,151.86Zm-1.06-16.71c-1.38-4.39-2.46-8.27-3.87-12.06a3.71,3.71,0,0,0-2.56-2.1,3.53,3.53,0,0,0-2.8,1.77c-1.47,4-2.61,8.06-4,12.42C575.32,135.15,579.22,135.15,583.91,135.15Z"></path><path class="cls-2" d="M398.48,151.86c-1.5-.12-2.47-.3-3.43-.27-3.79.12-8.66-1-11,.87-1.9,1.54-.93,6.77-.87,10.38.06,3.06-1,4.42-4.15,4.3-3.82-.13-7.64-.07-11.46,0-2.61,0-3.72-1.12-3.9-3.79-1.48-22.46,1-35.66,11.15-56.58a6.15,6.15,0,0,1,4.45-2.89q12.09-.45,24.17,0a6,6,0,0,1,4.3,3.07c3.55,8.69,7.37,17.37,9.77,26.42,1.59,6,1,12.51,1.23,18.79.15,3.64-.06,7.31.06,11,.09,2.85-1.14,4.12-4,4.06-4-.1-7.93-.13-11.87,0-3.19.12-4.33-1.54-4.39-4.33C398.45,159.35,398.48,155.83,398.48,151.86Zm-1-16.83c-1.27-4.18-2.35-8.09-3.7-11.91A3.65,3.65,0,0,0,391.2,121a3.46,3.46,0,0,0-2.85,1.68c-1.47,4-2.62,8.09-4,12.39Z"></path><path class="cls-2" d="M353.38,130.28v20.2c0,9.26-4,15.27-13.07,16.29a128.79,128.79,0,0,1-28.17,0c-9.11-1-13.29-7-13.32-16.14,0-14,.09-28.08-.09-42.12,0-3.64,1-5.14,4.84-4.87a73.26,73.26,0,0,0,10.58,0c3.91-.3,5.23,1.23,5.17,5-.15,11.79-.06,23.57-.06,35.36,0,5.56,1.32,6.85,6.95,6.91s7.36-1.53,7.36-7.09c0-11.94.09-23.88-.06-35.78,0-3.25,1-4.63,4.36-4.45a90.2,90.2,0,0,0,11,0c3.67-.24,4.6,1.35,4.51,4.72C353.26,115.7,353.38,123,353.38,130.28Z"></path><path class="cls-2" d="M495,135.27c0-4.78-.13-9.53,0-14.31.36-10.74,5.59-16.42,16.41-17,8.87-.48,17.8-.15,26.7-.27,2.52,0,3.6,1.14,3.6,3.55,0,3.21,0,6.46,0,9.68,0,2.85-1.32,4-4.17,3.91-5.39-.12-10.74-.09-16.12,0-4.81.06-6,1.23-6,6,0,5.89.15,11.78-.06,17.68-.15,4.12,2,5.59,5.59,5.62,5.5.06,11,.15,16.54,0,3.15-.09,4.35,1.2,4.26,4.21s.34,6.25-.21,9.23c-.24,1.38-2.28,3.45-3.51,3.45-9.59.06-19.24.19-28.77-.72-9.32-.87-13.86-6.43-14.16-15.81-.18-5,0-10.1,0-15.15C495.05,135.27,495.05,135.27,495,135.27Z"></path><path class="cls-2" d="M605.41,69.67v9.44c0,5.74-2.56,9.5-8.21,10.13a82.11,82.11,0,0,1-17.8,0c-5.47-.6-8-4.06-8.2-9.59-.18-6.37-.18-12.78-.06-19.15s2.64-9.29,9.05-10.64a39,39,0,0,1,17.52.27c5.11,1.23,7.67,4.57,7.73,9.83C605.44,63.2,605.41,66.42,605.41,69.67Zm-12.57.39c0-2.26-.06-4.54,0-6.8.06-2-.87-3.12-2.91-3.18a32.13,32.13,0,0,0-3.4,0c-1.8.15-2.86,1.05-2.83,3q.09,6.54,0,13.08c0,2.11,1,3,2.95,3.22a21.82,21.82,0,0,0,3.43,0,2.72,2.72,0,0,0,2.79-3.1C592.78,74.24,592.84,72.13,592.84,70.06Z"></path><path class="cls-2" d="M335.35,67.74c4.08,1.39,5.83,4.06,5.8,8-.06,3.67-.06,7.34,0,11,0,1.87-.63,2.77-2.59,2.71-2.55-.06-5.11,0-7.66,0-1.66,0-2.41-.78-2.41-2.41,0-2.52-.06-5.08,0-7.6,0-1.84-.66-2.77-2.61-2.71-2.26.06-4.51,0-7,0,0,3.52-.09,6.74,0,9.92.06,2.05-.78,2.86-2.8,2.77-2.46-.09-4.93,0-7.39,0-1.65,0-2.41-.78-2.41-2.41V52.2c0-1.5.63-2.25,2.23-2.22,6.94.06,13.92-.09,20.86.15,5.14.18,7.91,3,8.15,8.08C337.66,61.49,338.23,64.92,335.35,67.74ZM319,59.54v7.69c2.14-.54,4.39-.51,5.71-1.62.81-.69.81-3.82,0-4.48C323.41,60.05,321.16,60.05,319,59.54Z"></path><path class="cls-2" d="M526.61,67.71c4.51,1.45,6,4.66,5.83,9-.09,3.4-.06,6.83,0,10.22,0,1.78-.72,2.59-2.49,2.56-2.56,0-5.11,0-7.67,0-1.77,0-2.55-.78-2.52-2.56.06-2.52,0-5.08,0-7.6,0-1.78-.75-2.56-2.53-2.56-2.25,0-4.54,0-7.12,0,0,3.46-.06,6.68,0,9.89.06,2-.72,2.89-2.77,2.83-2.37-.09-4.75-.06-7.12,0-1.87,0-2.71-.69-2.71-2.62q0-17.17,0-34.36c0-1.77.63-2.52,2.47-2.52,6.7.06,13.37-.06,20.08.12,5.86.15,8.66,3.12,8.72,8.92C528.84,62.06,529.32,65.22,526.61,67.71Zm-16.32-.33c2.25-.66,4.51-.72,5.77-1.86.78-.72.72-3.85-.09-4.45-1.35-1-3.58-1-5.68-1.38Z"></path><path class="cls-2" d="M490.75,69.82v9.44c0,5.59-2.56,9-8,10.1a43.16,43.16,0,0,1-18.07,0c-5.2-1.11-7.76-3.94-7.94-9.32-.24-7-.21-14,0-21,.15-4.91,2.65-7.73,7.46-8.9a39.64,39.64,0,0,1,19.09,0c5.05,1.23,7.49,4.48,7.52,9.68C490.78,63.17,490.75,66.48,490.75,69.82Zm-21.68-.3v6.79a2.8,2.8,0,0,0,2.86,3.1,18.65,18.65,0,0,0,3.66,0,2.69,2.69,0,0,0,2.71-2.92c0-4.54,0-9,0-13.59a2.51,2.51,0,0,0-2.56-2.76,24.56,24.56,0,0,0-3.93,0A2.72,2.72,0,0,0,469,63.26C469.13,65.34,469.07,67.41,469.07,69.52Z"></path><path class="cls-2" d="M376.14,67.71c4.15,1.33,5.83,4.12,5.83,8,0,3.67,0,7.34,0,11,0,1.84-.63,2.77-2.61,2.71-2.47-.09-4.93-.09-7.4,0-2,.06-2.64-.87-2.58-2.71.06-2.43,0-4.9,0-7.33,0-1.87-.81-2.71-2.74-2.65-2.25.06-4.51,0-7.06,0,0,3.55-.09,6.77,0,9.95.09,2.08-.75,2.83-2.77,2.74-2.37-.09-4.75-.06-7.12,0-1.78,0-2.56-.66-2.56-2.47q0-17.31,0-34.63c0-1.86.78-2.43,2.56-2.4,6.52.06,13-.06,19.54.09,6.22.15,9.14,3.18,9.2,9.38C378.52,62.3,378.76,65.28,376.14,67.71Zm-16.35-.3c2.28-.69,4.48-.84,5.89-2,.75-.6.72-3.73,0-4.24-1.47-1-3.67-1.11-5.86-1.65Z"></path><path class="cls-2" d="M283.06,78.93c4.87,0,9.53.06,14.16,0,1.9,0,2.77.57,2.65,2.55s-.06,3.85,0,5.78c.06,1.56-.66,2.25-2.19,2.25H272.57a2,2,0,0,1-2.25-2.25c0-11.73,0-23.45.09-35.18a2.85,2.85,0,0,1,2-1.95C280.9,50,289.38,50,297.83,50c1.44,0,2.13.63,2,2.07v.27c-.21,9.68,1.65,8-7.88,8.12-2.91.06-5.8,0-8.93,0v4c3.13,0,6.29.09,9.41,0,2.29-.09,3.13.81,3.1,3.06-.15,8.18.84,6.71-6.82,6.86-1.84,0-3.67,0-5.69,0Z"></path><path class="cls-2" d="M394.39,60.62c-1.8,0-3.31-.06-4.78,0-1.83.09-2.55-.78-2.55-2.5,0-1.92,0-3.84,0-5.77s.84-2.4,2.61-2.4q11.24.09,22.46,0c1.8,0,2.58.63,2.49,2.46s-.09,3.85,0,5.77-.72,2.53-2.52,2.44c-1.47-.09-3,0-4.57,0V78.87c1.71,0,3.28,0,4.84,0s2.28.54,2.25,2.13c-.06,2.11,0,4.21,0,6.29,0,1.59-.81,2.16-2.31,2.16q-11.37,0-22.73,0c-1.83,0-2.58-.87-2.52-2.56.09-2.43-.61-5.47.63-7.09,1-1.32,4.27-.93,6.7-1.32Z"></path><path class="cls-2" d="M545,78.48V60.65c-1.65,0-3.22-.06-4.75,0-1.74.09-2.52-.54-2.64-2.38C537,50,537,50,545.28,50h16.39c3.36,0,3.48.12,3.48,3.33.06,6.86.06,6.86-7.12,7.46V78.9c1.56,0,3.22,0,4.84,0s2.28.69,2.25,2.19v.27c-.12,9.56,1.21,8.06-7.69,8.15-5.62.06-11.28,0-16.9,0-2.1,0-3.12-.69-3-2.89s-.64-5.38.57-6.82S542.4,78.87,545,78.48Z"></path><path class="cls-2" d="M242,60.62c-2.77,0-5.23,0-7.7,0-1.56,0-2.25-.63-2.22-2.2.06-2.1.06-4.21,0-6.28,0-1.59.69-2.16,2.22-2.16,9.5,0,19,0,28.53,0,1.74,0,2.38.78,2.35,2.37,0,1.83-.06,3.67,0,5.5.09,2-.64,2.92-2.77,2.8s-4.57,0-7.16,0c-.06,1-.15,2-.15,2.85,0,7.61-.06,15.22,0,22.82,0,2.35-.81,3.37-3.24,3.19a58.15,58.15,0,0,0-6.86,0c-2.13.09-3-.72-2.94-2.92.09-8,0-15.9,0-23.87C242.09,62.12,242,61.52,242,60.62Z"></path><path class="cls-2" d="M429,60.62c-2.7,0-5.08-.06-7.42,0-1.62.06-2.5-.51-2.44-2.26.06-2.1.06-4.21,0-6.28,0-1.59.79-2.13,2.29-2.13,9.5,0,19,0,28.53,0,1.53,0,2.28.6,2.25,2.16-.06,2.1-.06,4.21,0,6.28,0,1.57-.66,2.23-2.22,2.2-2.47-.06-4.93,0-7.82,0V63.5c0,7.61-.06,15.22,0,22.82,0,2.41-.81,3.34-3.21,3.19a58.15,58.15,0,0,0-6.86,0c-2.19.12-2.94-.78-2.94-2.92.09-7.78,0-15.57,0-23.33C429.15,62.45,429.05,61.7,429,60.62Z"></path><path class="cls-3" d="M145.49,146.6c7.07-13,4.66-27.09,4.66-27.09l-1.56-.33v-3.54H137l.15,2.7-5.62-.51a24.45,24.45,0,0,1,3.34,3.43c.6,1-.39,10.85-.24,14.07s5.5,2.4,5.5,2.4l0,2.08-.84,0c-.78-1.51-5.83-1.48-6,1-.22,2.92,3.36,4.66,3.36,4.66a3.25,3.25,0,0,1-.78-1.83c0-.13,0-.34.12-.37.78-.21,2.62.7,2.95-1.2.15-.81,1.17-.48,1.17-.48s-.27,2.92.42,4.36c1,2.07,3.82,3.43,3.82,3.43-2.29-3.91-1.17-9.86-1.17-9.86C145,139.87,145.49,146.6,145.49,146.6Zm-5.26-11.27c-.81,0-1.5-1.66-1.5-3.73a15.85,15.85,0,0,1,1.5-5.2,16.12,16.12,0,0,1,1.5,5.2C141.73,133.64,141.07,135.33,140.23,135.33Z"></path><path class="cls-3" d="M145.64,81.09c-5.26-.09-10.31-.48-10.31,3.88,0,2.65,3.79,4.93,3.79,4.93v1.71H152V90.35s3.93-1.44,3.93-5C155.92,80.1,150.63,81.15,145.64,81.09Zm6.68,5.23A1.36,1.36,0,0,1,151,87.68H140.38A1.35,1.35,0,0,1,139,86.32v-2.1a1.34,1.34,0,0,1,1.35-1.35H151a1.35,1.35,0,0,1,1.36,1.35Z"></path><path class="cls-3" d="M149.79,84.25h-8.24a.87.87,0,0,0-.87.87v.3a.87.87,0,0,0,.87.87h8.24a.87.87,0,0,0,.87-.87v-.3A.87.87,0,0,0,149.79,84.25Z"></path><path class="cls-3" d="M149.55,71.89v4.75a1.78,1.78,0,0,1-1.77,1.78h-2.44a1.78,1.78,0,0,1-1.77-1.78V71.89H140v5.56a2.69,2.69,0,0,0,2.71,2.71h7.63a2.69,2.69,0,0,0,2.71-2.71V71.89Z"></path><path class="cls-3" d="M145.13,75.08a1.45,1.45,0,0,0,2.89,0V71.89h-2.89Z"></path><path class="cls-3" d="M121.47,76.52s7.28.93,8.75,3.28c0,0,3.25-1.77,3.16-3.79s-2.8-7.21-9.53-2.79v-3l-2.38,2.34Z"></path><path class="cls-3" d="M72.89,138c-1.48,1.12-10.71,3.85-10.71,3.85s5.21-8.12,6.71-9.23a3.7,3.7,0,0,1,5,.45A3.75,3.75,0,0,1,72.89,138Z"></path><path class="cls-3" d="M67,131.12c4.54-2.8,8.39-2.71,9.56-1.38s.58,6.88-2.43,10.34c-.66.75-2.47,2.19-2.56,3.88s1.93,5.59,1.93,5.59a9.37,9.37,0,0,1,1.62-3.28c3.43-3.34,6.53-7.3,7.52-11.06a17.67,17.67,0,0,0-.33-8.69c-.15-.69,2.07-3.4,3.06-4.69a.71.71,0,0,0-.18-1l-3.27-2.2a.71.71,0,0,0-1,.15c-.78,1-2.37,3.34-3.33,3.82-1.3.6-4.39-.42-7.37.87a42.66,42.66,0,0,0-8.45,5.29,13.84,13.84,0,0,1-4.54,1.78s3.67,3.18,5.87,2.79C64.17,133.13,66.3,131.57,67,131.12Z"></path><path class="cls-3" d="M96.4,72.91c-3.22,0-8.15,3.07-7.88,8.36.12,2.62,3,5,6.22,5s6.41-3.57,6.41-6.16C101.15,76.58,99.61,72.91,96.4,72.91ZM94.83,82a2.22,2.22,0,0,1-2.07-2.19,2.58,2.58,0,0,1,2.43-2.2c1.12,0,1.63,1.18,1.63,2.32A2,2,0,0,1,94.83,82Z"></path><rect class="cls-3" x="74.87" y="72.79" width="2.04" height="1.62"></rect><path class="cls-3" d="M79.92,80.19H72.68a1,1,0,0,0-1,1V82a1,1,0,0,0,1,1h7.24a1,1,0,0,0,1-1v-.78A1,1,0,0,0,79.92,80.19Z"></path><path class="cls-3" d="M143.18,98.68s1,3.1-1,3.1-1.5-4.39-1.5-4.39l2.71.09c3.24-.24,8-1.54,10.13-3.16C156.25,92.16,156,90,156,90c-.09.51-3.54,1.83-5,2.41s-15.06.15-16.38.51-6.89,3.54-10.07,3.88-7.07-3.4-7.46-3.91-.12-2.77-.12-2.77a22.56,22.56,0,0,0,8.33-.9c1.8-.72,4.84-3.25,5.74-3.91-2.71.54-8.78.3-8.87-.57-.15-1.32,9.59-1.23,9.59-1.59,0-1.24-2-4.15-11.54-6.32a10.48,10.48,0,0,0-9.89-7,10.37,10.37,0,0,0-7.58,3.24c-.87.91,1.17,8.87-1.92,12-3.31,3.31-8.84,4.27-11.73,4.09l-3.25,5.14h4.3v6.64s-7.12,2.68-8.35-14.34h1.8a2.68,2.68,0,0,0,2.68-2.67V79.35a2.69,2.69,0,0,0-2.68-2.68H82.3v-7.6a.63.63,0,0,0-.63-.63H70.24a.63.63,0,0,0-.63.63v7.6h-1.2a2.69,2.69,0,0,0-2.68,2.68v4.57a2.68,2.68,0,0,0,2.68,2.67h3.06c-.12,3.19-.3,15.88,4.39,23.15a28.28,28.28,0,0,0,12.93,11v7.93a7.67,7.67,0,0,0-3.61,6.8c0,4.9,3.61,5.62,3.61,5.62h13.47a8.4,8.4,0,0,0,6.58-8.48h-3.48l3.84-3.43h-3.9v-5.56s5.83.66,5.83,5.11a14.64,14.64,0,0,1-1,5c-.6,1.54-1.18,6.56,3.33,6.38h11.22a10.83,10.83,0,0,0,2.43-.72,13.47,13.47,0,0,0,4.33-7.55h-3.79l3.52-4.9h-5.08s.21-6.73-7-14c0,0,5.08,2.31,7.69.84,3.64-2,5.59-4,6.83-6.25v6.82h10a14.5,14.5,0,0,0,3.91-.93c3-1.59,4.81-5.38,5-5.8a11.23,11.23,0,0,1-4.12,1.83,39.5,39.5,0,0,1-5.8.6s.48,2.29-1.42,2.29c0,0-1.32.24-1.32-2v-1.86l3.19,0s4.45.09,5.62-.78a9.8,9.8,0,0,0,4.3-5.11,14.48,14.48,0,0,1-4.3,2,28.82,28.82,0,0,1-6.13.81s.57,2.29-1.18,2.29c-1.59,0-1.38-2.35-1.38-2.35V104s6.22-.21,8.15-.84,6.25-3.82,6.25-5.53v-1A20.85,20.85,0,0,1,143.18,98.68ZM71.44,74.45h1.63V72.82H71.44v-1h1.63V70.21h1.8v1.62h2V70.21h1.8v1.62h1.62v1H78.72v1.63h1.62v1H78.72v1.68h-1.8V75.44h-2v1.68h-1.8V75.44H71.44Zm-.93,9.47a1,1,0,0,1-1-1V80.25a1,1,0,0,1,1-1h10.7a1,1,0,0,1,1,1V82.9a1,1,0,0,1-1,1ZM89.6,114.13S77.73,113.83,76.74,89c0,0,3.12,21.52,12.86,21.86Zm.42,24v-1.71l2.83-2L90,132.74v-2.07l5,3.73Zm18.19-48.67h-6.7l4.9-8.57h1.92l-3.64,7h1.87l3.34-7h1.95Zm1-9.35c-1.83,0-3.33-.6-3.33-1.32s1.5-1.33,3.33-1.33,3.34.61,3.34,1.33S111.07,80.07,109.2,80.07Zm4.12,57.84v-1.74l2.83-2-2.83-1.65v-2.07l5.05,3.72Z"></path><path class="cls-3" d="M182.59,173.24l-3-2.56,1.27-1.53A94.37,94.37,0,0,0,203,108.24v-2h4v2a98.15,98.15,0,0,1-23.09,63.43Z"></path><path class="cls-3" d="M176.34,168l-15.67-13.14,1.3-1.53a69.81,69.81,0,0,0,8.87-13.47l.9-1.78,10.88,5.5-2,3.94-1.18,2c-.45.81-1,1.62-1.44,2.4l3.55,2.35a90.13,90.13,0,0,0,7.3-14.4l-15.39-5.62.66-1.87a69.49,69.49,0,0,0,3.76-15.84l.24-2,12.12,1.42-.54,4.3c-.06.54-.18,1.08-.28,1.62a6.5,6.5,0,0,0-.12.75l-.15.75c-.09.54-.18,1.08-.3,1.6l-.09.39,4.12,1a88.27,88.27,0,0,0,1.93-18v-2h4v2a93.26,93.26,0,0,1-2.46,20.83l-.45,1.93L184,128.26l1-4.21c.09-.45.18-1,.27-1.44l.15-.75c0-.24.09-.51.15-.78.09-.48.18-1,.24-1.39l0-.33-4.21-.48a74,74,0,0,1-3.07,12.9L194,137.43l-.69,1.87a92.38,92.38,0,0,1-9.5,18.76l-1.08,1.65L172.58,153l1.59-2.5c.66-1,1.3-2,1.84-3l1.29-2.28-3.79-1.93a72.76,72.76,0,0,1-7.21,11l12.62,10.58Z"></path><path class="cls-3" d="M157.49,152.13l-3-2.55,1.26-1.54a61.71,61.71,0,0,0,10.77-18.61,63.42,63.42,0,0,0,3.72-21.19v-2l4,0v2a65.77,65.77,0,0,1-15.42,42.36Z"></path><path class="cls-3" d="M123.45,205.8l-.69-3.91,2-.33a94.78,94.78,0,0,0,56.13-32.41l1.26-1.53,3.07,2.55-1.27,1.53a97.48,97.48,0,0,1-26.21,22,97.62,97.62,0,0,1-32.26,11.76Z"></path><path class="cls-3" d="M122,197.74l-3.52-20.11,2-.33A71.16,71.16,0,0,0,136,172.7l1.84-.78,4.81,11.21-1.84.78c-1.5.63-3,1.23-4.42,1.74l-.06,0-2.22.76a2.08,2.08,0,0,0-.39.15l1.2,4.06a86.6,86.6,0,0,0,14.82-6.38l-8.18-14.22,1.72-1a68.43,68.43,0,0,0,13-9.68l1.45-1.38,8.33,8.83-1.39,1.36c-.84.84-1.71,1.59-2.58,2.31-.33.3-.66.57-1,.87-.75.64-1.47,1.21-2.22,1.78l2.53,3.43a87.37,87.37,0,0,0,13-12.57l1.3-1.5,3,2.55-1.29,1.5a92.39,92.39,0,0,1-15.27,14.37l-1.6,1.18-7.24-9.77,1.71-1.33c1.14-.87,2.35-1.8,3.43-2.73l1-.87c.33-.27.63-.55.93-.82l-2.91-3.09a71.32,71.32,0,0,1-10.65,7.87l8.21,14.25-1.68,1.06A88.59,88.59,0,0,1,134.07,195l-1.9.55-3.48-11.73,2-.54c.75-.21,1.47-.45,2.1-.66l2.2-.75c.78-.3,1.59-.6,2.4-.94L135.69,177a74.31,74.31,0,0,1-12.57,3.72L126,197Z"></path><path class="cls-3" d="M117.77,173.48l-.66-3.91,2-.33a62.14,62.14,0,0,0,36.64-21.17l1.27-1.53L160,149.1l-1.26,1.53a66.1,66.1,0,0,1-39,22.55Z"></path><path class="cls-3" d="M108.3,206.94a101.22,101.22,0,0,1-17.1-1.5,96.47,96.47,0,0,1-32.26-11.73l-1.72-1,2-3.43,1.71,1a93.59,93.59,0,0,0,15,7,94.75,94.75,0,0,0,16,4.24,94.28,94.28,0,0,0,32.83,0l2-.33.69,3.91-2,.33A98,98,0,0,1,108.3,206.94Z"></path><path class="cls-3" d="M108.3,198.73c-1.8,0-3.61-.06-5.41-.18l-2-.12.72-12.17,2,.15c1,.06,2,.09,3,.12.51,0,1,0,1.5,0h.54c.66,0,1.33,0,2,0l-.24-4.21a75.38,75.38,0,0,1-13.2-.81l-2.86,16.2-2-.36a89.17,89.17,0,0,1-20.14-6l-1.81-.79,4.87-11.18,1.84.81c.9.42,1.83.78,2.82,1.15l1.39.54c.48.15.93.33,1.41.48l1,.36,1.23-4.06a72.25,72.25,0,0,1-12-5.23l-8.27,14.28-3.43-2L71.62,168l1.72,1a68.26,68.26,0,0,0,14.79,6.4l1.92.57-3.51,11.67-1.9-.54c-1-.3-2.07-.66-3.09-1-.49-.15-1-.34-1.42-.49l-.12,0-1.41-.54-1.14-.45-1.69,3.91a84.19,84.19,0,0,0,15.49,4.63L94.11,177l2,.33a70.81,70.81,0,0,0,16.23,1l2-.12.69,12.17-2,.09c-1.38.06-2.79.09-4.12.13h-.69c-.51,0-1,0-1.5,0s-.81,0-1.23,0l-.24,4.24a85.36,85.36,0,0,0,18-1.23l2-.33.69,3.91-2,.33A99.77,99.77,0,0,1,108.3,198.73Z"></path><path class="cls-3" d="M108.3,174.17a68.85,68.85,0,0,1-11.45-1,63.52,63.52,0,0,1-11.1-3,65.21,65.21,0,0,1-10.4-4.87l-1.71-1,2-3.43,1.72,1a60.88,60.88,0,0,0,20.17,7.34,67.67,67.67,0,0,0,10.76,1,64.46,64.46,0,0,0,10.77-1l1.95-.33.69,3.91-1.92.33A69.55,69.55,0,0,1,108.3,174.17Z"></path><path class="cls-3" d="M60.65,194.7l-1.71-1A98.85,98.85,0,0,1,15.52,142l-.69-1.86,3.73-1.36.69,1.87a95.5,95.5,0,0,0,16.48,28.5,94.31,94.31,0,0,0,25.16,21.13l1.72,1Z"></path><path class="cls-3" d="M64.65,187.52l-1.71-1a91,91,0,0,1-8.78-5.78,88.9,88.9,0,0,1-8.06-6.82l-1.41-1.35,8.38-8.84,1.45,1.38c1.77,1.71,3.7,3.31,5.35,4.63l2.52-3.4a76.64,76.64,0,0,1-9.62-9.11L40.15,167.8l-1.27-1.51a90,90,0,0,1-11.51-17.55l-.9-1.78,10.88-5.44,2,3.82c.21.42.45.84.69,1.26.15.24.27.48.42.72.42.75.84,1.48,1.29,2.2l3.55-2.35a74,74,0,0,1-5.89-11.69l-15.49,5.65-1.32-3.76,19.18-7,.69,1.86a72.23,72.23,0,0,0,7.25,14.43l1.08,1.66-10.19,6.7-1.08-1.68c-.85-1.3-1.72-2.65-2.53-4.09-.12-.21-.24-.42-.39-.66-.27-.49-.54-.94-.78-1.42l-.18-.33-3.79,1.9a86.69,86.69,0,0,0,8.84,13.49l12.57-10.52,1.26,1.51A75,75,0,0,0,66.3,164.46l1.6,1.2-7.31,9.77L59,174.2c-1.69-1.29-3.76-2.95-5.83-4.81l-2.92,3.07c1.74,1.59,3.73,3.21,6.25,5.14a89.07,89.07,0,0,0,8.36,5.5l1.71,1Z"></path><path class="cls-3" d="M77.07,166.32l-1.72-1a66.09,66.09,0,0,1-29-34.51L45.65,129l3.73-1.38.69,1.86A62.19,62.19,0,0,0,60.86,148a60.88,60.88,0,0,0,16.48,13.83l1.71,1Z"></path><path class="cls-3" d="M16.22,143.9l-.7-1.87a99,99,0,0,1,0-67.52l.7-1.87L19.91,74l-.69,1.86a96.53,96.53,0,0,0-5.65,32.41,95.11,95.11,0,0,0,5.71,32.41l.69,1.86Z"></path><path class="cls-3" d="M23.88,140.92l-.66-1.86a90.74,90.74,0,0,1-4.78-20.48l-.24-2,12.09-1.39.36,2.92c.15,1.23.3,2.38.51,3.52l.48,2.58,4.15-1a73.21,73.21,0,0,1-1.51-13.14l-16.47-.06v-2a92.83,92.83,0,0,1,2.47-20.83l.45-1.93,11.84,2.83-1,4.21c-.09.45-.18,1-.27,1.44l-.15.75c0,.24-.09.51-.15.78-.09.48-.18,1-.24,1.42l0,.3,4.21.48a77.2,77.2,0,0,1,3-12.75L22.56,79.17l1.35-3.73,19.18,7-.66,1.87A71.48,71.48,0,0,0,38.73,100l-.24,2-12.11-1.42.54-4.3c.06-.57.18-1.11.27-1.62a6.5,6.5,0,0,0,.12-.75l.15-.75c.09-.54.18-1.08.3-1.6l.09-.39-4.12-1a89.51,89.51,0,0,0-1.89,16l16.41,0v2a71.34,71.34,0,0,0,1.87,16.17l.45,1.93-11.88,2.79-1-4.33-.42-2.28c-.18-.93-.33-1.86-.45-2.77l-4.21.49A88.67,88.67,0,0,0,27,137.79l.66,1.87Z"></path><path class="cls-3" d="M47,132.68l-.69-1.86a67.41,67.41,0,0,1-4-22.55,66.53,66.53,0,0,1,4-22.55L47,83.86l3.73,1.35-.69,1.86a62,62,0,0,0,0,42.36l.69,1.87Z"></path><path class="cls-3" d="M18.59,77.75,14.86,76.4l.69-1.86A98.88,98.88,0,0,1,58.94,22.86l1.71-1,2,3.42-1.72,1a95.08,95.08,0,0,0-41.64,49.6Z"></path><path class="cls-3" d="M26.35,80.4,22.62,79l.69-1.87a93.68,93.68,0,0,1,9.5-18.76l1.08-1.65L44,63.44l-1.6,2.5c-.66,1-1.29,2-1.83,3l-1.29,2.28,3.78,1.93a74.32,74.32,0,0,1,7.28-11.07L37.8,51.48,39.1,50A92,92,0,0,1,54.37,35.58L56,34.43l7.25,9.77-1.66,1.3c-1.17.9-2.34,1.8-3.48,2.76-.31.27-.67.57-1,.87s-.63.55-.93.82L59.09,53c.24-.21.48-.42.75-.63l1-.81c.9-.75,1.78-1.44,2.65-2.11l.78-.6c1.59-1.14,3.43-2.43,5.41-3.66L61.4,31l3.43-2L75.08,46.7l-1.74,1a69.2,69.2,0,0,0-6.74,4.42l-.69.54c-.87.66-1.68,1.29-2.46,2-.3.27-.63.54-1,.84-.72.63-1.38,1.2-2,1.83L59,58.72l-8.36-8.89,1.38-1.36c.84-.84,1.72-1.59,2.56-2.31.33-.3.66-.57,1-.87.75-.64,1.47-1.21,2.22-1.78L55.3,40.08a90.4,90.4,0,0,0-11.73,11L56,61.64,54.7,63.17a68.15,68.15,0,0,0-9,13.56l-.9,1.78L34,73l2-3.93,1.17-2c.45-.81,1-1.62,1.44-2.4L35,62.3a87.1,87.1,0,0,0-8,16.27Z"></path><path class="cls-3" d="M49.41,89l-3.73-1.38.69-1.87a66.13,66.13,0,0,1,29-34.54l1.72-1,2,3.42-1.71,1A60.43,60.43,0,0,0,60.86,68.44,62.41,62.41,0,0,0,50.07,87.07Z"></path><path class="cls-3" d="M59.21,27.28l-2-3.46,1.75-1A97.4,97.4,0,0,1,91.2,11.07a98.28,98.28,0,0,1,34.21,0l2,.33-.69,3.91-2-.3a94.28,94.28,0,0,0-32.83,0,93.52,93.52,0,0,0-31,11.28Z"></path><path class="cls-3" d="M78.84,44.65,74,33.44l1.83-.78c1.51-.63,3-1.23,4.42-1.74l.06,0,2.23-.76A2.08,2.08,0,0,0,83,30l-1.2-4.06a84.26,84.26,0,0,0-16.57,7.37l-1.71,1-2-3.45,1.72-1a89,89,0,0,1,19.33-8.29L84.43,21l3.49,11.73-2,.54c-.72.18-1.47.45-2.1.66l-2.19.75c-.79.3-1.57.6-2.41.94l1.68,3.87A75.72,75.72,0,0,1,93.6,35.73L90.81,19.52l2-.33A89.75,89.75,0,0,1,113.71,18l2,.12L115,30.31l-2-.15c-1-.06-2-.09-3-.12-.52,0-1,0-1.51,0h-.51c-.66,0-1.35,0-2,0l.24,4.21a74.15,74.15,0,0,1,13.08.78L122,18.8l3.91.69L122.43,39.6l-2-.33a71.5,71.5,0,0,0-16.12-1l-2,.12-.69-12.17,2-.09c1.42-.06,2.8-.1,4.18-.13h.66c.51,0,1,0,1.51,0s.81,0,1.2,0l.24-4.24a83,83,0,0,0-16.06.87l2.8,16.17-2,.33a70.06,70.06,0,0,0-15.61,4.63Z"></path><path class="cls-3" d="M75.62,55.63l-2-3.43,1.71-1a64.54,64.54,0,0,1,21.5-7.82,64.83,64.83,0,0,1,22.91,0l1.95.33L121,47.63l-2-.33a67.8,67.8,0,0,0-10.77-1,64.34,64.34,0,0,0-10.76,1,60.76,60.76,0,0,0-10.43,2.77,61.55,61.55,0,0,0-9.77,4.57Z"></path><path class="cls-3" d="M182.11,48.92l-1.26-1.53A94,94,0,0,0,124.75,15l-2-.36.69-3.91,2,.33A96.68,96.68,0,0,1,157.64,22.8a98.31,98.31,0,0,1,26.24,22l1.27,1.54Z"></path><path class="cls-3" d="M163.26,64.77,162,63.26a73.93,73.93,0,0,0-11.73-11.12l-1.59-1.2,7.3-9.77,1.6,1.23c1.68,1.29,3.76,3,5.83,4.81l2.92-3.07c-1.75-1.59-3.73-3.21-6.26-5.14s-4.63-3.27-6.67-4.51l-8.24,14.19-1.71-1a70.21,70.21,0,0,0-14.91-6.49l-1.93-.57L130.1,29l1.89.54c1,.3,2.11.66,3.1,1,.48.15.93.34,1.41.49l.12,0,1.39.54,1.17.45,1.68-3.91a86.11,86.11,0,0,0-17.44-5l-2-.36.69-3.91,2,.36a89.79,89.79,0,0,1,20.14,6l1.8.78-4.87,11.19-1.83-.81c-.9-.42-1.84-.78-2.83-1.15l-1.38-.54c-.48-.15-.93-.33-1.41-.48l-1-.36-1.23,4.06a72.43,72.43,0,0,1,12.15,5.29L151.9,29l1.71,1a93.49,93.49,0,0,1,8.78,5.78,85.27,85.27,0,0,1,8.05,6.82l1.42,1.35-8.39,8.84L162,51.33c-1.78-1.71-3.7-3.31-5.38-4.63l-2.53,3.4a74.37,74.37,0,0,1,9.5,9L176.25,48.5l2.55,3Z"></path><path class="cls-3" d="M157,70l-1.27-1.53A62.06,62.06,0,0,0,119.07,47.3l-2-.33.66-3.91,2,.33a66.1,66.1,0,0,1,39.05,22.55L160,67.47Z"></path><path class="cls-3" d="M203,110.25v-2a94.46,94.46,0,0,0-22.18-60.88l-1.27-1.53,3-2.56,1.26,1.53A98.45,98.45,0,0,1,207,108.27v2Z"></path><path class="cls-3" d="M198.79,110.25H178.38v-2a70.46,70.46,0,0,0-1.86-16l-.45-1.93,11.87-2.79,1,4.32.42,2.29c.19.93.34,1.86.46,2.77l4.2-.49a90.62,90.62,0,0,0-3.66-15.72l-15.43,5.59-.66-1.86A71,71,0,0,0,167,69.85l-1.09-1.66,10.2-6.7,1.08,1.68c.84,1.33,1.71,2.68,2.52,4.09.12.21.24.42.4.66.27.49.54.94.78,1.42l.18.33,3.79-1.9a85.5,85.5,0,0,0-10.11-15l-1.29-1.53,3-2.56,1.29,1.54a90.46,90.46,0,0,1,11.51,17.55l.91,1.78L179.28,75l-1.95-3.82c-.21-.42-.45-.84-.69-1.26-.15-.24-.27-.48-.42-.72-.42-.75-.84-1.48-1.3-2.2l-3.54,2.35a75.38,75.38,0,0,1,6,11.84l15.48-5.59.66,1.86a91.83,91.83,0,0,1,4.78,20.48l.24,2-12.08,1.38-.36-2.91c-.15-1.23-.3-2.38-.51-3.52l-.48-2.58-4.15,1a75.6,75.6,0,0,1,1.5,13h16.48v4Z"></path><path class="cls-3" d="M170.23,110.25v-2a61.57,61.57,0,0,0-14.49-39.8l-1.26-1.54,3-2.55,1.26,1.53a65.88,65.88,0,0,1,11.45,19.81,67.54,67.54,0,0,1,4,22.55v2Z"></path></svg>