<svg xmlns="http://www.w3.org/2000/svg" xmlns:xlink="http://www.w3.org/1999/xlink" id="Capa_1" x="0px" y="0px" viewBox="0 0 100 100" style="enable-background:new 0 0 100 100;" xml:space="preserve">
<style type="text/css">
	.st0{fill:#2E0200;}
	.st1{fill:#FBBA00;}
</style>
<g id="Buscar">
</g>
<circle class="st0" cx="50" cy="50" r="49.5"></circle>
<g>
	<g>
		<g id="XMLID_3260_">
			<path id="XMLID_3285_" class="st1" d="M68.5,69.1c3.5-6.5,2.3-13.5,2.3-13.5l-0.8-0.2v-1.8h-5.8l0.1,1.3l-2.8-0.3     c0,0,1.4,1.2,1.7,1.7s-0.2,5.4-0.1,7c0.1,1.6,2.7,1.2,2.7,1.2l0,1l-0.4,0c-0.4-0.7-2.9-0.7-3,0.5c-0.1,1.5,1.7,2.3,1.7,2.3     s-0.4-0.5-0.4-0.9c0-0.1,0-0.2,0.1-0.2c0.4-0.1,1.3,0.3,1.5-0.6c0.1-0.4,0.6-0.2,0.6-0.2s-0.1,1.5,0.2,2.2c0.5,1,1.9,1.7,1.9,1.7     c-1.1-1.9-0.6-4.9-0.6-4.9C68.3,65.8,68.5,69.1,68.5,69.1z M65.9,63.5c-0.4,0-0.7-0.8-0.7-1.9s0.7-2.6,0.7-2.6s0.7,1.6,0.7,2.6     C66.7,62.7,66.3,63.5,65.9,63.5z"></path>
			<path id="XMLID_3282_" class="st1" d="M68.6,36.5c-2.6,0-5.1-0.2-5.1,1.9c0,1.3,1.9,2.5,1.9,2.5v0.9h6.4v-0.6c0,0,2-0.7,2-2.5     C73.7,36,71.1,36.5,68.6,36.5z M72,39.1c0,0.4-0.3,0.7-0.7,0.7H66c-0.4,0-0.7-0.3-0.7-0.7v-1c0-0.4,0.3-0.7,0.7-0.7h5.3     c0.4,0,0.7,0.3,0.7,0.7V39.1z"></path>
			<path id="XMLID_3281_" class="st1" d="M70.7,38h-4.1c-0.2,0-0.4,0.2-0.4,0.4v0.1c0,0.2,0.2,0.4,0.4,0.4h4.1     c0.2,0,0.4-0.2,0.4-0.4v-0.1C71.1,38.2,70.9,38,70.7,38z"></path>
			<path id="XMLID_3280_" class="st1" d="M70.6,31.9v2.4c0,0.5-0.4,0.9-0.9,0.9h-1.2c-0.5,0-0.9-0.4-0.9-0.9v-2.4h-1.8v2.8     c0,0.7,0.6,1.3,1.3,1.3H71c0.7,0,1.3-0.6,1.3-1.3v-2.8H70.6z"></path>
			<path id="XMLID_3279_" class="st1" d="M68.4,33.5c0,0.4,0.3,0.7,0.7,0.7c0.4,0,0.7-0.3,0.7-0.7v-1.6h-1.4V33.5z"></path>
			<path id="XMLID_3278_" class="st1" d="M56.6,34.2c0,0,3.6,0.5,4.4,1.6c0,0,1.6-0.9,1.6-1.9c0-1-1.4-3.6-4.7-1.4V31l-1.2,1.2V34.2     z"></path>
			<g id="XMLID_3275_">
				<path id="XMLID_3277_" class="st1" d="M32.4,64.8c-0.7,0.6-5.3,1.9-5.3,1.9s2.6-4,3.3-4.6c0.7-0.6,1.9-0.5,2.5,0.2      C33.4,63.1,33.1,64.3,32.4,64.8z"></path>
				<path id="XMLID_3276_" class="st1" d="M29.4,61.4c2.3-1.4,4.2-1.3,4.8-0.7c0.6,0.7,0.3,3.4-1.2,5.2c-0.3,0.4-1.2,1.1-1.3,1.9      c-0.1,0.9,1,2.8,1,2.8s0.3-1.2,0.8-1.6c1.7-1.7,3.3-3.6,3.7-5.5c0.4-1.7,0.1-3.3-0.2-4.3c-0.1-0.3,1-1.7,1.5-2.3      c0.1-0.2,0.1-0.4-0.1-0.5l-1.6-1.1c-0.2-0.1-0.4-0.1-0.5,0.1c-0.4,0.5-1.2,1.7-1.7,1.9c-0.6,0.3-2.2-0.2-3.7,0.4      c-1.3,0.6-2.5,1.3-4.2,2.6c-0.8,0.6-2.3,0.9-2.3,0.9s1.8,1.6,2.9,1.4C28,62.4,29.1,61.6,29.4,61.4z"></path>
			</g>
			<path id="XMLID_3272_" class="st1" d="M44.1,32.4c-1.6,0-4.1,1.5-3.9,4.2c0.1,1.3,1.5,2.5,3.1,2.5s3.2-1.8,3.2-3.1     C46.4,34.2,45.7,32.4,44.1,32.4z M43.3,36.9c-0.6,0-1-0.5-1-1.1c0-0.6,0.7-1.1,1.2-1.1c0.6,0,0.8,0.6,0.8,1.2     C44.3,36.4,43.9,36.9,43.3,36.9z"></path>
			<rect id="XMLID_3271_" x="33.4" y="32.3" class="st1" width="1" height="0.8"></rect>
			<path id="XMLID_3270_" class="st1" d="M35.9,36h-3.6c-0.3,0-0.5,0.2-0.5,0.5v0.4c0,0.3,0.2,0.5,0.5,0.5h3.6     c0.3,0,0.5-0.2,0.5-0.5v-0.4C36.4,36.2,36.2,36,35.9,36z"></path>
			<path id="XMLID_3261_" class="st1" d="M67.4,45.2c0,0,0.5,1.5-0.5,1.5c-1,0-0.7-2.2-0.7-2.2l1.3,0c1.6-0.1,4-0.8,5-1.6     c1.4-1.1,1.2-2.2,1.2-2.2c0,0.3-1.8,0.9-2.5,1.2c-0.7,0.3-7.5,0.1-8.2,0.3c-0.7,0.2-3.4,1.8-5,1.9s-3.5-1.7-3.7-1.9     c-0.2-0.3-0.1-1.4-0.1-1.4c1.6,0.1,3.3-0.1,4.2-0.4c0.9-0.4,2.4-1.6,2.9-1.9c-1.3,0.3-4.4,0.1-4.4-0.3c-0.1-0.7,4.8-0.6,4.8-0.8     c0-0.6-1-2.1-5.8-3.1c-0.7-2-2.7-3.5-4.9-3.5c-1.5,0-2.8,0.6-3.8,1.6c-0.4,0.4,0.6,4.4-1,6c-1.6,1.6-4.4,2.1-5.8,2L38.8,43h2.1     v3.3c0,0-3.6,1.3-4.2-7.1h0.9c0.7,0,1.3-0.6,1.3-1.3v-2.3c0-0.7-0.6-1.3-1.3-1.3h-0.6v-3.8c0-0.2-0.1-0.3-0.3-0.3H31     c-0.2,0-0.3,0.1-0.3,0.3v3.8h-0.6c-0.7,0-1.3,0.6-1.3,1.3v2.3c0,0.7,0.6,1.3,1.3,1.3h1.5c-0.1,1.6-0.1,7.9,2.2,11.5     c2.3,3.6,5.1,4.9,6.4,5.5v4c0,0-1.8,0.9-1.8,3.4c0,2.4,1.8,2.8,1.8,2.8H47c0,0,3.3-0.6,3.3-4.2h-1.7l1.9-1.7h-1.9v-2.8     c0,0,2.9,0.3,2.9,2.5c0,0.9-0.2,1.9-0.5,2.5c-0.3,0.8-0.6,3.3,1.7,3.2h5.6c0,0,0.9-0.2,1.2-0.4c0.9-0.6,2.1-2.6,2.2-3.8h-1.9     l1.8-2.4h-2.5c0,0,0.1-3.4-3.5-7c0,0,2.5,1.2,3.8,0.4c1.8-1,2.8-2,3.4-3.1v3.4h5c0,0,1.3-0.1,1.9-0.5c1.5-0.8,2.4-2.7,2.5-2.9     c0,0-0.8,0.6-2.1,0.9c-1,0.2-2.4,0.3-2.9,0.3c0,0,0.2,1.1-0.7,1.1c0,0-0.7,0.1-0.7-1c0-0.7,0-0.9,0-0.9l1.6,0c0,0,2.2,0,2.8-0.4     c0.6-0.4,1.4-0.8,2.1-2.5c0,0-0.9,0.7-2.1,1c-1.2,0.3-2.7,0.4-3.1,0.4c0,0,0.3,1.1-0.6,1.1c-0.8,0-0.7-1.2-0.7-1.2v-0.7     c0,0,3.1-0.1,4.1-0.4c1-0.3,3.1-1.9,3.1-2.8v-0.5C73,44.2,70.5,45.5,67.4,45.2z M31.6,33.2h0.8v-0.8h-0.8v-0.5h0.8V31h0.9v0.8h1     V31h0.9v0.8h0.8v0.5h-0.8v0.8h0.8v0.5h-0.8v0.8h-0.9v-0.8h-1v0.8h-0.9v-0.8h-0.8V33.2z M31.2,37.9c-0.3,0-0.5-0.2-0.5-0.5V36     c0-0.3,0.2-0.5,0.5-0.5h5.3c0.3,0,0.5,0.2,0.5,0.5v1.3c0,0.3-0.2,0.5-0.5,0.5H31.2z M40.7,52.9c0,0-5.9-0.1-6.4-12.5     c0,0,1.6,10.7,6.4,10.9V52.9z M40.9,64.9V64l1.4-1l-1.4-0.8v-1v-0.1l2.5,1.9L40.9,64.9z M50,40.6h-3.3l2.4-4.3h1l-1.8,3.5h0.9     l1.7-3.5h1L50,40.6z M50.5,36c-0.9,0-1.7-0.3-1.7-0.7s0.7-0.7,1.7-0.7c0.9,0,1.7,0.3,1.7,0.7S51.4,36,50.5,36z M52.5,64.8v-0.9     l1.4-1l-1.4-0.8v-1v-0.1l2.5,1.9L52.5,64.8z"></path>
		</g>
		<g>
			<g>
				<path class="st1" d="M87,82.4l-1.5-1.3l0.6-0.8c3.6-4.2,6.3-9,8.2-14.2c1.9-5.1,2.8-10.6,2.8-16.2v-1h2v1c0,5.8-1,11.5-3,16.8      c-2,5.4-4.9,10.4-8.6,14.8L87,82.4z"></path>
				<path class="st1" d="M83.9,79.8l-7.8-6.5l0.6-0.8c1.7-2,3.2-4.2,4.4-6.7l0.4-0.9l5.4,2.7l-1,2l-0.6,1c-0.2,0.4-0.5,0.8-0.7,1.2      l1.8,1.2c1.4-2.3,2.7-4.7,3.6-7.2l-7.7-2.8l0.3-0.9c0.9-2.5,1.6-5.2,1.9-7.9l0.1-1l6,0.7L90.6,56c0,0.3-0.1,0.5-0.1,0.8      c0,0.1,0,0.3-0.1,0.4l-0.1,0.4c0,0.3-0.1,0.5-0.1,0.8l0,0.2l2.1,0.5c0.6-2.9,0.9-5.9,1-9v-1h2v1c0,3.5-0.4,7-1.2,10.4l-0.2,1      L87.7,60l0.5-2.1c0-0.2,0.1-0.5,0.1-0.7l0.1-0.4c0-0.1,0-0.3,0.1-0.4c0-0.2,0.1-0.5,0.1-0.7l0-0.2l-2.1-0.2      c-0.3,2.2-0.8,4.3-1.5,6.4l7.7,2.8l-0.3,0.9c-1.2,3.3-2.8,6.4-4.7,9.3l-0.5,0.8l-5-3.3l0.8-1.2c0.3-0.5,0.6-1,0.9-1.5l0.6-1.1      l-1.9-1c-1.1,2-2.3,3.8-3.6,5.5l6.3,5.3L83.9,79.8z"></path>
				<path class="st1" d="M74.5,71.9L73,70.6l0.6-0.8c2.3-2.8,4.1-5.9,5.4-9.3c1.2-3.3,1.8-6.9,1.9-10.6v-1l2,0v1      c0,3.9-0.7,7.7-2,11.2c-1.3,3.6-3.3,6.9-5.7,9.9L74.5,71.9z"></path>
			</g>
			<g>
				<path class="st1" d="M57.6,98.6l-0.3-1.9l1-0.2c2.7-0.5,5.4-1.2,8-2.1c2.6-0.9,5.1-2.1,7.5-3.5c4.8-2.8,9.1-6.3,12.5-10.5      l0.6-0.8l1.5,1.3l-0.6,0.8c-3.6,4.4-8,8.1-13.1,11c-2.5,1.4-5.1,2.7-7.8,3.6c-2.7,1-5.5,1.7-8.3,2.2L57.6,98.6z"></path>
				<path class="st1" d="M56.9,94.6l-1.8-10l1-0.2c2.7-0.5,5.3-1.3,7.7-2.3l0.9-0.4l2.4,5.6l-0.9,0.4c-0.7,0.3-1.5,0.6-2.2,0.9l0,0      L62.9,89c-0.1,0-0.1,0-0.2,0.1l0.6,2c2.5-0.8,5-1.9,7.4-3.2l-4.1-7.1l0.9-0.5c2.4-1.4,4.6-3,6.5-4.8l0.7-0.7l4.2,4.4l-0.7,0.7      c-0.4,0.4-0.9,0.8-1.3,1.2c-0.2,0.1-0.3,0.3-0.5,0.4c-0.4,0.3-0.7,0.6-1.1,0.9l1.3,1.7c2.4-1.8,4.5-3.9,6.5-6.3l0.6-0.7l1.5,1.3      l-0.6,0.7c-2.3,2.7-4.9,5.1-7.6,7.2l-0.8,0.6l-3.6-4.9l0.9-0.7c0.6-0.4,1.2-0.9,1.7-1.4c0.1-0.1,0.3-0.3,0.5-0.4      c0.2-0.1,0.3-0.3,0.5-0.4l-1.5-1.5c-1.6,1.5-3.4,2.8-5.3,3.9l4.1,7.1l-0.8,0.5c-3.1,1.8-6.3,3.2-9.6,4.1l-0.9,0.3l-1.7-5.8      l1-0.3c0.4-0.1,0.7-0.2,1-0.3l1.1-0.4c0.4-0.1,0.8-0.3,1.2-0.5l-0.8-1.9c-2,0.8-4.1,1.4-6.3,1.9l1.4,8.1L56.9,94.6z"></path>
				<path class="st1" d="M54.7,82.5l-0.3-1.9l1-0.2c7-1.2,13.7-5,18.3-10.5l0.6-0.8l1.5,1.3l-0.6,0.8c-4.9,5.9-12,10-19.5,11.2      L54.7,82.5z"></path>
			</g>
			<g>
				<path class="st1" d="M50,99.2c-2.9,0-5.7-0.3-8.5-0.7c-2.9-0.5-5.6-1.2-8.3-2.2c-2.7-1-5.3-2.2-7.8-3.6l-0.9-0.5l1-1.7l0.9,0.5      c2.4,1.4,4.9,2.5,7.5,3.5c2.5,0.9,5.2,1.6,8,2.1c2.7,0.5,5.4,0.7,8.2,0.7c2.7,0,5.5-0.3,8.2-0.7l1-0.2l0.3,1.9l-1,0.2      C55.8,98.9,52.9,99.2,50,99.2z"></path>
				<path class="st1" d="M50,95.1c-0.9,0-1.8,0-2.7-0.1l-1-0.1l0.4-6.1l1,0.1c0.5,0,1,0,1.5,0.1c0.3,0,0.5,0,0.7,0h0.3      c0.3,0,0.7,0,1,0l-0.1-2.1c-2.2,0.1-4.4-0.1-6.6-0.4l-1.4,8.1l-1-0.2c-3.6-0.6-7-1.6-10-3L31.2,91l2.4-5.6l0.9,0.4      c0.4,0.2,0.9,0.4,1.4,0.6c0.2,0.1,0.5,0.2,0.7,0.3c0.2,0.1,0.5,0.2,0.7,0.2c0.2,0.1,0.3,0.1,0.5,0.2l0.6-2c-2-0.7-4-1.5-6-2.6      l-4.1,7.1l-1.7-1l5.1-8.8l0.9,0.5c2.4,1.4,4.9,2.5,7.4,3.2l1,0.3l-1.8,5.8l-0.9-0.3c-0.5-0.1-1-0.3-1.5-0.5      c-0.2-0.1-0.5-0.2-0.7-0.2l-0.1,0c-0.2-0.1-0.5-0.2-0.7-0.3c-0.2-0.1-0.4-0.1-0.6-0.2L33.8,90c2.4,1,5,1.8,7.7,2.3l1.4-8l1,0.2      c2.7,0.5,5.4,0.6,8.1,0.5l1-0.1l0.3,6.1l-1,0c-0.7,0-1.4,0-2.1,0.1H50h0c-0.3,0-0.5,0-0.7,0c-0.2,0-0.4,0-0.6,0l-0.1,2.1      c3,0.1,6-0.1,9-0.6l1-0.2l0.3,1.9l-1,0.2C55.2,94.9,52.6,95.1,50,95.1z"></path>
				<path class="st1" d="M50,82.9c-1.9,0-3.9-0.2-5.7-0.5c-1.9-0.3-3.8-0.8-5.5-1.5c-1.8-0.7-3.5-1.5-5.2-2.4L32.7,78l1-1.7l0.9,0.5      c1.5,0.9,3.2,1.7,4.9,2.3c1.6,0.6,3.4,1.1,5.2,1.4c1.8,0.3,3.6,0.5,5.4,0.5c1.8,0,3.6-0.2,5.4-0.5l1-0.2l0.3,1.9l-1,0.2      C53.9,82.7,51.9,82.8,50,82.9z"></path>
			</g>
			<g>
				<path class="st1" d="M26.3,93.1l-0.9-0.5c-5-2.9-9.4-6.6-13.1-11c-3.7-4.4-6.6-9.4-8.6-14.8l-0.3-0.9l1.9-0.7l0.3,0.9      c1.9,5.2,4.7,10,8.2,14.2c3.5,4.2,7.7,7.7,12.5,10.5l0.9,0.5L26.3,93.1z"></path>
				<path class="st1" d="M28.3,89.5L27.4,89c-1.3-0.7-2.7-1.7-4.4-2.9c-1.7-1.3-2.9-2.3-4-3.4l-0.7-0.7l4.2-4.4l0.7,0.7      c0.9,0.9,1.8,1.6,2.7,2.3l1.3-1.7c-1.7-1.4-3.3-2.9-4.8-4.5L16,79.7l-0.6-0.7c-2.2-2.6-4.1-5.6-5.7-8.8l-0.4-0.9l5.4-2.7l1,1.9      c0.1,0.2,0.2,0.4,0.3,0.6c0.1,0.1,0.1,0.2,0.2,0.4c0.2,0.4,0.4,0.7,0.6,1.1l1.8-1.2c-1.2-1.9-2.1-3.8-2.9-5.8l-7.7,2.8l-0.7-1.9      l9.6-3.5l0.3,0.9c0.9,2.5,2.1,4.9,3.6,7.2l0.5,0.8l-5.1,3.3l-0.5-0.8c-0.4-0.6-0.9-1.3-1.3-2c-0.1-0.1-0.1-0.2-0.2-0.3      c-0.1-0.2-0.3-0.5-0.4-0.7l-0.1-0.2l-1.9,0.9c1.3,2.4,2.8,4.7,4.4,6.7l6.3-5.2l0.6,0.7c1.8,2.1,3.7,4,5.9,5.6l0.8,0.6l-3.6,4.9      l-0.8-0.6c-0.8-0.6-1.9-1.5-2.9-2.4L21.1,82c0.9,0.8,1.9,1.6,3.1,2.6c1.6,1.2,2.9,2,4.2,2.7l0.9,0.5L28.3,89.5z"></path>
				<path class="st1" d="M34.4,78.9l-0.9-0.5c-3.4-2-6.3-4.4-8.8-7.3c-2.5-3-4.4-6.3-5.7-9.9l-0.3-0.9l1.9-0.7l0.3,0.9      c1.2,3.4,3.1,6.5,5.4,9.3c2.3,2.7,5,5,8.2,6.9l0.9,0.5L34.4,78.9z"></path>
			</g>
			<g>
				<path class="st1" d="M4.1,67.8l-0.3-0.9c-1.9-5.3-2.9-11-3-16.8c0-5.8,1-11.5,3-16.8l0.3-0.9L6,32.9l-0.3,0.9      C3.8,39,2.8,44.4,2.8,50c0,5.6,1,11,2.8,16.2L6,67.1L4.1,67.8z"></path>
				<path class="st1" d="M7.9,66.3l-0.3-0.9c-1.2-3.3-2-6.7-2.4-10.2l-0.1-1l6-0.7l0.2,1.5c0.1,0.6,0.1,1.2,0.3,1.8l0.2,1.3l2.1-0.5      c-0.4-2.2-0.7-4.4-0.7-6.5l-8.2,0v-1c0-3.5,0.4-7,1.2-10.4l0.2-1l5.9,1.4l-0.5,2.1c0,0.2-0.1,0.5-0.1,0.7l-0.1,0.4      c0,0.1,0,0.3-0.1,0.4c0,0.2-0.1,0.5-0.1,0.7l0,0.1l2.1,0.2c0.3-2.2,0.8-4.3,1.5-6.4l-7.7-2.8L8,33.6l9.6,3.5l-0.3,0.9      c-0.9,2.5-1.5,5.2-1.8,7.8l-0.1,1l-6-0.7L9.5,44c0-0.3,0.1-0.6,0.1-0.8c0-0.1,0-0.3,0.1-0.4l0.1-0.4c0-0.3,0.1-0.5,0.1-0.8      l0-0.2L7.9,41c-0.6,2.6-0.9,5.3-0.9,8l8.2,0v1c0,2.7,0.3,5.4,0.9,8.1l0.2,1l-5.9,1.4l-0.5-2.2l-0.2-1.1      c-0.1-0.5-0.2-0.9-0.2-1.4l-2.1,0.2c0.4,3,1.1,5.9,2.2,8.8l0.3,0.9L7.9,66.3z"></path>
				<path class="st1" d="M19.5,62.2l-0.3-0.9c-1.3-3.6-1.9-7.3-2-11.2c0-3.9,0.7-7.7,2-11.2l0.3-0.9l1.9,0.7L21,39.4      c-1.2,3.3-1.8,6.9-1.9,10.6c0,3.7,0.6,7.2,1.9,10.5l0.3,0.9L19.5,62.2z"></path>
			</g>
			<g>
				<path class="st1" d="M5.3,34.8l-1.9-0.7l0.3-0.9c2-5.4,4.9-10.4,8.6-14.8c3.6-4.4,8-8,13.1-11l0.9-0.5l1,1.7l-0.9,0.5      c-4.8,2.8-9.1,6.4-12.5,10.5c-3.6,4.2-6.3,9-8.2,14.2L5.3,34.8z"></path>
				<path class="st1" d="M9.2,36.1l-1.9-0.7l0.3-0.9c1.2-3.3,2.8-6.4,4.7-9.3l0.5-0.8l5,3.3l-0.8,1.2c-0.3,0.5-0.6,1-0.9,1.5      l-0.6,1.1l1.9,1c1.1-2,2.3-3.9,3.6-5.5l-6.3-5.3l0.6-0.8c2.3-2.7,4.9-5.1,7.6-7.2l0.8-0.6l3.6,4.9l-0.8,0.6      c-0.6,0.4-1.2,0.9-1.7,1.4c-0.1,0.1-0.3,0.3-0.5,0.4c-0.2,0.1-0.3,0.3-0.5,0.4l1.5,1.5c0.1-0.1,0.2-0.2,0.4-0.3      c0.2-0.1,0.3-0.3,0.5-0.4c0.4-0.4,0.9-0.7,1.3-1l0.4-0.3c0.8-0.6,1.7-1.2,2.7-1.8l-4.1-7.1l1.7-1l5.1,8.8l-0.9,0.5      c-1.2,0.7-2.4,1.5-3.4,2.2l-0.3,0.3c-0.4,0.3-0.8,0.6-1.2,1c-0.1,0.1-0.3,0.3-0.5,0.4c-0.4,0.3-0.7,0.6-1,0.9l-0.7,0.7l-4.2-4.4      l0.7-0.7c0.4-0.4,0.9-0.8,1.3-1.2c0.2-0.1,0.3-0.3,0.5-0.4c0.4-0.3,0.7-0.6,1.1-0.9L23.6,16c-2.1,1.6-4,3.5-5.8,5.5l6.2,5.2      l-0.6,0.8c-1.7,2-3.2,4.2-4.5,6.8l-0.4,0.9L13,32.4l1-2l0.6-1c0.2-0.4,0.5-0.8,0.7-1.2l-1.8-1.2c-1.6,2.6-3,5.3-4,8.1L9.2,36.1z      "></path>
				<path class="st1" d="M20.7,40.4l-1.9-0.7l0.3-0.9c1.3-3.6,3.2-6.9,5.7-9.9c2.4-2.9,5.3-5.4,8.7-7.3l0.9-0.5l1,1.7l-0.9,0.5      c-3.2,1.8-5.9,4.2-8.2,6.9c-2.3,2.8-4.1,5.9-5.4,9.3L20.7,40.4z"></path>
			</g>
			<g>
				<path class="st1" d="M25.5,9.6l-1-1.7l0.9-0.5c2.5-1.4,5.1-2.7,7.8-3.6c2.7-1,5.5-1.7,8.3-2.2c2.8-0.5,5.7-0.7,8.5-0.7      c2.9,0,5.7,0.3,8.5,0.7l1,0.2l-0.3,1.9l-1-0.1c-2.7-0.5-5.4-0.7-8.2-0.7c-2.7,0-5.5,0.3-8.2,0.7c-2.7,0.5-5.4,1.2-8,2.1      c-2.6,0.9-5.1,2.1-7.5,3.5L25.5,9.6z"></path>
				<path class="st1" d="M35.3,18.3l-2.4-5.6l0.9-0.4c0.7-0.3,1.5-0.6,2.2-0.9l0,0l1.1-0.4c0.1,0,0.1,0,0.2-0.1l-0.6-2      c-2.8,0.9-5.6,2.1-8.3,3.7l-0.9,0.5l-1-1.7l0.9-0.5c3.1-1.8,6.4-3.2,9.6-4.1l0.9-0.3l1.7,5.8l-1,0.3c-0.4,0.1-0.7,0.2-1,0.3      l-1.1,0.4c-0.4,0.1-0.8,0.3-1.2,0.5l0.8,1.9c2-0.8,4.1-1.4,6.3-1.9l-1.4-8.1l1-0.2c3.5-0.6,7-0.8,10.4-0.6l1,0.1l-0.4,6.1      l-1-0.1c-0.5,0-1,0-1.5-0.1c-0.3,0-0.5,0-0.7,0h-0.3c-0.3,0-0.7,0-1,0l0.1,2.1c2.1-0.1,4.3,0.1,6.5,0.4l1.4-8.1l1.9,0.3l-1.8,10      l-1-0.2c-2.7-0.5-5.4-0.6-8-0.5l-1,0.1l-0.3-6.1l1,0c0.7,0,1.4,0,2.1-0.1h0.3h0c0.3,0,0.5,0,0.7,0c0.2,0,0.4,0,0.6,0l0.1-2.1      c-2.6-0.1-5.3,0-8,0.4l1.4,8.1l-1,0.2c-2.7,0.5-5.3,1.3-7.8,2.3L35.3,18.3z"></path>
				<path class="st1" d="M33.7,23.8l-1-1.7l0.9-0.5c1.6-1,3.4-1.8,5.2-2.4c1.8-0.6,3.6-1.1,5.5-1.5c1.9-0.3,3.8-0.5,5.7-0.5      c1.9,0,3.9,0.2,5.7,0.5l1,0.2l-0.3,1.9l-1-0.2c-1.8-0.3-3.6-0.5-5.4-0.5c-1.8,0-3.6,0.2-5.4,0.5c-1.8,0.3-3.6,0.8-5.2,1.4      c-1.7,0.6-3.3,1.4-4.9,2.3L33.7,23.8z"></path>
			</g>
			<g>
				<path class="st1" d="M86.8,20.4l-0.6-0.8c-3.5-4.2-7.7-7.7-12.5-10.5c-2.4-1.4-4.9-2.5-7.5-3.5c-2.5-0.9-5.2-1.6-8-2.1l-1-0.2      l0.3-1.9l1,0.2c2.9,0.5,5.6,1.2,8.3,2.2c2.7,1,5.3,2.2,7.8,3.6c5,2.9,9.4,6.6,13.1,11l0.6,0.8L86.8,20.4z"></path>
				<path class="st1" d="M77.4,28.3l-0.6-0.7c-1.7-2.1-3.7-3.9-5.8-5.5l-0.8-0.6l3.6-4.9l0.8,0.6c0.8,0.6,1.9,1.5,2.9,2.4l1.5-1.5      c-0.9-0.8-1.9-1.6-3.1-2.6c-1.2-0.9-2.3-1.6-3.3-2.2l-4.1,7.1l-0.9-0.5c-2.5-1.4-5-2.5-7.4-3.2l-1-0.3l1.8-5.8l0.9,0.3      c0.5,0.1,1,0.3,1.5,0.5c0.2,0.1,0.5,0.2,0.7,0.2l0.1,0c0.2,0.1,0.5,0.2,0.7,0.3c0.2,0.1,0.4,0.1,0.6,0.2l0.8-1.9      c-2.7-1.1-5.6-1.9-8.7-2.5l-1-0.2l0.3-1.9l1,0.2c3.6,0.6,6.9,1.6,10,3L68.8,9l-2.4,5.6l-0.9-0.4c-0.4-0.2-0.9-0.4-1.4-0.6      c-0.2-0.1-0.5-0.2-0.7-0.3c-0.2-0.1-0.5-0.2-0.7-0.2c-0.2-0.1-0.3-0.1-0.5-0.2l-0.6,2c2,0.7,4,1.5,6.1,2.6l4.1-7.1l0.9,0.5      c1.3,0.7,2.7,1.7,4.4,2.9c1.7,1.3,2.9,2.3,4,3.4l0.7,0.7l-4.2,4.4l-0.7-0.7c-0.9-0.9-1.8-1.6-2.7-2.3L72.9,21      c1.7,1.4,3.3,2.9,4.7,4.5l6.3-5.3l1.3,1.5L77.4,28.3z"></path>
				<path class="st1" d="M74.3,30.9l-0.6-0.8c-4.6-5.5-11.3-9.4-18.3-10.5l-1-0.2l0.3-1.9l1,0.2c7.4,1.3,14.5,5.3,19.5,11.2l0.6,0.8      L74.3,30.9z"></path>
			</g>
			<g>
				<path class="st1" d="M97.2,51v-1c0-5.6-1-11-2.8-16.2c-1.9-5.2-4.7-10-8.2-14.2l-0.6-0.8l1.5-1.3l0.6,0.8      c3.7,4.4,6.6,9.4,8.6,14.8c1.9,5.3,2.9,11,3,16.8v1H97.2z"></path>
				<path class="st1" d="M95.1,51H84.9v-1c0-2.7-0.3-5.4-0.9-8l-0.2-1l5.9-1.4l0.5,2.2l0.2,1.1c0.1,0.5,0.2,0.9,0.2,1.4l2.1-0.2      c-0.4-2.7-1-5.3-1.8-7.8L83.2,39l-0.3-0.9c-0.9-2.5-2.1-4.9-3.6-7.3L78.7,30l5.1-3.3l0.5,0.8c0.4,0.7,0.9,1.3,1.3,2      c0.1,0.1,0.1,0.2,0.2,0.3c0.1,0.2,0.3,0.5,0.4,0.7l0.1,0.2l1.9-0.9c-1.5-2.7-3.1-5.2-5-7.5l-0.6-0.8l1.5-1.3l0.6,0.8      c2.2,2.6,4.1,5.6,5.7,8.8l0.4,0.9l-5.4,2.7l-1-1.9c-0.1-0.2-0.2-0.4-0.3-0.6c-0.1-0.1-0.1-0.2-0.2-0.4c-0.2-0.4-0.4-0.7-0.6-1.1      l-1.8,1.2c1.2,1.9,2.2,3.9,3,5.9l7.7-2.8l0.3,0.9c1.2,3.3,2,6.7,2.4,10.2l0.1,1l-6,0.7l-0.2-1.5c-0.1-0.6-0.1-1.2-0.3-1.8      L88.3,42l-2.1,0.5c0.4,2.1,0.7,4.3,0.7,6.5h8.2L95.1,51L95.1,51z"></path>
				<path class="st1" d="M80.9,51v-1c0-3.7-0.6-7.2-1.9-10.6c-1.2-3.4-3.1-6.5-5.4-9.3L73,29.4l1.5-1.3l0.6,0.8      c2.5,3,4.4,6.3,5.7,9.9c1.3,3.6,1.9,7.3,2,11.2v1H80.9z"></path>
			</g>
		</g>
	</g>
</g>
</svg>